<svg height="300" viewBox="0 0 900 300" width="900" xmlns="http://www.w3.org/2000/svg"><path d="m0 0h900v300h-900z" fill="#862789"/><path d="m0 247 16.7-7c16.6-7 50-21 83.3-25.3 33.3-4.4 66.7 1 100 2.6 33.3 1.7 66.7-.3 100 .7s66.7 5 100-.8c33.3-5.9 66.7-21.5 100-29.9 33.3-8.3 66.7-9.3 100-8.6 33.3.6 66.7 3 100 9.6 33.3 6.7 66.7 17.7 100 18 33.3.4 66.7-10 83.3-15.1l16.7-5.2v-186h-16.7c-16.6 0-50 0-83.3 0s-66.7 0-100 0-66.7 0-100 0-66.7 0-100 0-66.7 0-100 0-66.7 0-100 0-66.7 0-100 0-66.7 0-100 0-66.7 0-83.3 0h-16.7z" fill="#c62368"/><path d="m0 189 16.7-.2c16.6-.1 50-.5 83.3-7.8s66.7-21.7 100-33.2 66.7-20.1 100-10.3 66.7 38.2 100 40.5 66.7-21.3 100-24.5 66.7 14.2 100 16.2 66.7-11.4 100-16.5c33.3-5.2 66.7-2.2 100-1 33.3 1.1 66.7.5 83.3.1l16.7-.3v-152h-16.7c-16.6 0-50 0-83.3 0s-66.7 0-100 0-66.7 0-100 0-66.7 0-100 0-66.7 0-100 0-66.7 0-100 0-66.7 0-100 0-66.7 0-100 0-66.7 0-83.3 0h-16.7z" fill="#e95667"/><path d="m0 138 16.7-8.3c16.6-8.4 50-25 83.3-28.2s66.7 7.2 100 16.7 66.7 18.1 100 18.6 66.7-7.1 100-12.8 66.7-9.3 100-9.8 66.7 2.1 100 7.3 66.7 12.8 100 16.2c33.3 3.3 66.7 2.3 100-2.7s66.7-14 83.3-18.5l16.7-4.5v-112h-16.7c-16.6 0-50 0-83.3 0s-66.7 0-100 0-66.7 0-100 0-66.7 0-100 0-66.7 0-100 0-66.7 0-100 0-66.7 0-100 0-66.7 0-100 0-66.7 0-83.3 0h-16.7z" fill="#fa7268"/><path d="m0 86 16.7.2c16.6.1 50 .5 83.3 5.1 33.3 4.7 66.7 13.7 100 9.5 33.3-4.1 66.7-21.5 100-29.3s66.7-6.2 100 2.3 66.7 23.9 100 22.5c33.3-1.3 66.7-19.3 100-27.8s66.7-7.5 100-5 66.7 6.5 100 6.8c33.3.4 66.7-3 83.3-4.6l16.7-1.7v-64h-16.7c-16.6 0-50 0-83.3 0s-66.7 0-100 0-66.7 0-100 0-66.7 0-100 0-66.7 0-100 0-66.7 0-100 0-66.7 0-100 0-66.7 0-100 0-66.7 0-83.3 0h-16.7z" fill="#e95667"/><path d="m0 62 16.7.3c16.6.4 50 1 83.3-4.3s66.7-16.7 100-17 66.7 10.3 100 13.7c33.3 3.3 66.7-.7 100-6.5 33.3-5.9 66.7-13.5 100-10.2s66.7 17.7 100 18 66.7-13.3 100-14.7c33.3-1.3 66.7 9.7 100 15.2s66.7 5.5 83.3 5.5h16.7v-62h-16.7c-16.6 0-50 0-83.3 0s-66.7 0-100 0-66.7 0-100 0-66.7 0-100 0-66.7 0-100 0-66.7 0-100 0-66.7 0-100 0-66.7 0-100 0-66.7 0-83.3 0h-16.7z" fill="#c62368"/></svg>